<svg xmlns="http://www.w3.org/2000/svg" id="canvas" viewBox="516.941 400.417 958.324 207.537"><path d="M 639.43,407.09 C 638.63 405.93, 637.37 404.89, 634.73 404.19 C 632.10 403.48, 630.17 403.24, 626.25 403.55 C 622.32 403.87, 619.80 404.11, 615.11 405.76 C 610.42 407.40, 608.03 408.65, 602.79 411.79 C 597.54 414.93, 594.68 416.70, 588.88 421.46 C 583.07 426.22, 579.92 429.16, 573.77 435.57 C 567.62 441.99, 564.26 445.69, 558.13 453.52 C 552.01 461.35, 548.58 465.87, 543.15 474.71 C 537.73 483.56, 535.04 488.51, 531.02 497.74 C 526.99 506.97, 525.25 511.89, 523.04 520.85 C 520.83 529.82, 520.09 534.49, 519.96 542.57 C 519.83 550.65, 520.32 554.66, 522.39 561.25 C 524.46 567.85, 526.20 570.85, 530.30 575.53 C 534.39 580.22, 537.14 582.07, 542.86 584.69 C 548.58 587.31, 551.97 588.10, 558.88 588.63 C 565.79 589.16, 569.82 588.81, 577.42 587.35 C 585.01 585.88, 589.00 584.51, 596.84 581.32 C 604.69 578.13, 608.82 575.97, 616.66 571.39 C 624.51 566.81, 628.74 564.02, 636.06 558.41 C 643.38 552.80, 646.75 549.44, 653.26 543.33 C 659.77 537.22, 663.01 533.73, 668.61 527.86 C 674.21 521.99, 677.09 518.46, 681.26 513.97 C 685.43 509.48, 687.55 507.55, 689.46 505.41 C 691.37 503.27, 690.88 502.49, 690.82 503.26 C 690.76 504.04, 689.94 505.61, 689.17 509.28 C 688.40 512.96, 687.91 516.05, 686.98 521.62 C 686.04 527.19, 685.27 531.24, 684.50 537.15 C 683.74 543.06, 683.31 546.18, 683.14 551.17 C 682.98 556.16, 682.69 558.47, 683.68 562.11 C 684.67 565.74, 685.64 567.56, 688.11 569.34 C 690.57 571.13, 692.65 571.58, 696.00 571.04 C 699.36 570.49, 700.99 569.21, 704.89 566.62 C 708.78 564.03, 710.98 562.19, 715.47 558.09 C 719.95 554.00, 722.44 551.22, 727.33 546.15 C 732.22 541.08, 734.85 538.05, 739.91 532.76 C 744.97 527.47, 747.83 524.42, 752.64 519.70 C 757.46 514.98, 759.97 512.43, 763.96 509.15 C 767.95 505.87, 770.19 504.68, 772.60 503.28 C 775.01 501.89, 775.30 501.51, 775.99 502.16 C 776.69 502.81, 776.14 503.83, 776.07 506.52 C 776.00 509.22, 776.08 511.34, 775.63 515.62 C 775.19 519.90, 774.54 522.95, 773.85 527.93 C 773.16 532.90, 772.75 535.82, 772.19 540.49 C 771.64 545.16, 771.00 547.48, 771.07 551.28 C 771.14 555.08, 771.22 557.08, 772.53 559.47 C 773.84 561.85, 775.23 562.76, 777.63 563.22 C 780.04 563.67, 781.73 563.47, 784.57 561.73 C 787.42 559.99, 788.71 558.02, 791.87 554.52 C 795.02 551.02, 796.70 548.69, 800.35 544.23 C 803.99 539.77, 805.97 537.06, 810.09 532.21 C 814.22 527.35, 816.62 524.56, 820.97 519.97 C 825.31 515.39, 827.76 512.92, 831.81 509.29 C 835.87 505.66, 838.19 503.92, 841.25 501.82 C 844.31 499.72, 845.59 499.13, 847.12 498.80 C 848.65 498.46, 848.43 498.64, 848.90 500.14 C 849.36 501.65, 849.37 502.93, 849.45 506.33 C 849.54 509.73, 849.55 512.33, 849.32 517.16 C 849.10 521.99, 848.65 525.18, 848.32 530.47 C 847.99 535.76, 847.72 538.65, 847.68 543.61 C 847.64 548.57, 847.44 551.08, 848.13 555.29 C 848.83 559.50, 849.20 561.67, 851.14 564.66 C 853.09 567.66, 854.75 569.03, 857.85 570.25 C 860.95 571.47, 862.88 571.41, 866.64 570.77 C 870.41 570.12, 872.59 569.30, 876.67 567.04 C 880.76 564.78, 882.85 562.97, 887.08 559.46 C 891.32 555.94, 893.53 553.78, 897.85 549.47 C 902.18 545.16, 904.53 542.57, 908.70 537.90 C 912.87 533.22, 914.95 530.55, 918.71 526.09 C 922.46 521.63, 924.39 519.19, 927.48 515.58 C 930.57 511.96, 932.38 510.49, 934.16 508.03 C 935.94 505.57, 936.27 504.06, 936.37 503.29 C 936.48 502.51, 935.33 502.62, 934.66 504.14 C 933.99 505.67, 933.48 507.39, 933.02 510.92 C 932.57 514.46, 932.61 517.09, 932.36 521.81 C 932.11 526.53, 931.86 529.40, 931.77 534.52 C 931.69 539.65, 931.44 542.53, 931.93 547.45 C 932.43 552.36, 932.80 554.90, 934.23 559.10 C 935.66 563.30, 936.70 565.30, 939.09 568.44 C 941.48 571.57, 942.96 573.05, 946.18 574.76 C 949.39 576.47, 951.34 576.87, 955.17 576.99 C 958.99 577.11, 961.23 576.78, 965.29 575.36 C 969.35 573.95, 971.38 572.63, 975.46 569.90 C 979.54 567.17, 982.10 564.98, 985.68 561.73 C 989.26 558.47, 990.98 556.68, 993.37 553.62 C 995.77 550.55, 997.23 548.18, 997.64 546.40 C 998.05 544.63, 997.00 543.90, 995.44 544.73 C 993.87 545.56, 992.42 547.85, 989.82 550.53 C 987.22 553.22, 985.85 555.08, 982.44 558.14 C 979.03 561.21, 976.54 563.39, 972.78 565.87 C 969.02 568.35, 967.14 569.41, 963.65 570.55 C 960.17 571.69, 958.35 571.69, 955.35 571.58 C 952.35 571.47, 951.11 571.25, 948.65 570.01 C 946.19 568.76, 945.05 567.83, 943.03 565.35 C 941.01 562.86, 939.91 561.23, 938.56 557.57 C 937.22 553.90, 936.75 551.59, 936.31 547.02 C 935.87 542.45, 936.05 539.64, 936.36 534.70 C 936.67 529.77, 937.23 526.96, 937.86 522.33 C 938.49 517.70, 939.26 515.26, 939.52 511.58 C 939.79 507.90, 940.03 506.04, 939.18 503.93 C 938.34 501.83, 937.15 500.91, 935.32 501.05 C 933.48 501.19, 932.24 502.23, 930.03 504.62 C 927.81 507.01, 927.05 509.16, 924.23 513.00 C 921.41 516.83, 919.54 519.28, 915.91 523.79 C 912.28 528.30, 910.21 530.96, 906.09 535.56 C 901.96 540.17, 899.59 542.70, 895.27 546.83 C 890.95 550.95, 888.65 553.00, 884.47 556.17 C 880.30 559.35, 878.15 560.86, 874.40 562.70 C 870.66 564.53, 868.65 564.86, 865.73 565.33 C 862.81 565.80, 861.84 565.78, 859.80 565.07 C 857.77 564.36, 856.97 563.89, 855.56 561.77 C 854.15 559.64, 853.46 558.09, 852.75 554.46 C 852.05 550.84, 852.03 548.36, 852.04 543.63 C 852.04 538.90, 852.31 536.04, 852.79 530.81 C 853.26 525.59, 853.93 522.48, 854.40 517.52 C 854.87 512.56, 855.46 509.94, 855.15 506.02 C 854.83 502.10, 854.51 500.18, 852.83 497.91 C 851.16 495.64, 849.57 494.62, 846.76 494.67 C 843.94 494.71, 842.23 495.76, 838.74 498.14 C 835.24 500.52, 833.33 502.66, 829.28 506.55 C 825.22 510.44, 822.84 512.94, 818.46 517.60 C 814.08 522.27, 811.64 525.08, 807.39 529.86 C 803.14 534.64, 801.05 537.30, 797.19 541.50 C 793.34 545.69, 791.38 547.82, 788.12 550.83 C 784.87 553.84, 782.97 554.85, 780.93 556.56 C 778.89 558.27, 778.69 559.14, 777.91 559.36 C 777.14 559.58, 777.34 559.29, 777.04 557.66 C 776.74 556.03, 776.43 554.54, 776.41 551.21 C 776.38 547.88, 776.47 545.52, 776.93 541.01 C 777.39 536.50, 777.88 533.62, 778.70 528.67 C 779.53 523.72, 780.46 520.80, 781.06 516.27 C 781.66 511.73, 782.34 509.37, 781.71 506.00 C 781.07 502.63, 780.10 500.76, 777.88 499.41 C 775.66 498.06, 773.88 497.87, 770.62 499.26 C 767.36 500.65, 765.61 502.73, 761.57 506.38 C 757.53 510.02, 755.20 512.62, 750.42 517.48 C 745.65 522.33, 742.79 525.37, 737.70 530.64 C 732.61 535.90, 729.94 538.92, 724.97 543.81 C 720.00 548.71, 717.40 551.36, 712.86 555.10 C 708.33 558.84, 705.91 560.42, 702.31 562.52 C 698.72 564.63, 697.20 565.01, 694.89 565.64 C 692.58 566.27, 692.08 566.61, 690.76 565.67 C 689.44 564.72, 688.97 563.80, 688.29 560.93 C 687.61 558.05, 687.29 555.91, 687.37 551.27 C 687.45 546.64, 687.84 543.50, 688.69 537.74 C 689.55 531.97, 690.58 528.03, 691.65 522.46 C 692.72 516.89, 693.83 513.97, 694.04 509.90 C 694.25 505.83, 694.14 503.62, 692.70 502.12 C 691.26 500.62, 689.61 500.47, 686.84 502.42 C 684.08 504.37, 682.91 507.13, 678.89 511.87 C 674.87 516.61, 672.19 520.16, 666.75 526.12 C 661.30 532.07, 658.08 535.55, 651.67 541.64 C 645.25 547.74, 641.91 551.05, 634.67 556.59 C 627.43 562.13, 623.23 564.87, 615.48 569.34 C 607.72 573.82, 603.62 575.91, 595.90 578.97 C 588.19 582.03, 584.27 583.30, 576.91 584.64 C 569.55 585.98, 565.68 586.22, 559.12 585.68 C 552.56 585.14, 549.44 584.36, 544.11 581.95 C 538.78 579.54, 536.31 577.92, 532.46 573.62 C 528.62 569.32, 526.93 566.65, 524.91 560.45 C 522.88 554.24, 522.28 550.41, 522.33 542.59 C 522.38 534.78, 523.02 530.17, 525.14 521.36 C 527.26 512.56, 528.96 507.68, 532.91 498.57 C 536.87 489.46, 539.54 484.54, 544.93 475.81 C 550.33 467.07, 553.76 462.60, 559.88 454.90 C 566.01 447.20, 569.41 443.55, 575.57 437.33 C 581.74 431.10, 584.92 428.25, 590.72 423.78 C 596.52 419.31, 599.42 417.67, 604.57 414.97 C 609.72 412.26, 612.09 411.33, 616.46 410.25 C 620.84 409.17, 623.00 409.49, 626.45 409.56 C 629.90 409.62, 631.27 410.49, 633.73 410.58 C 636.19 410.67, 637.59 410.70, 638.73 410.01 C 639.87 409.31, 640.23 408.25, 639.43 407.09" style="stroke: black; fill: black; --darkreader-inline-stroke: var(--darkreader-text-000000, #181a1b); --darkreader-inline-fill: var(--darkreader-text-000000, #181a1b);" data-darkreader-inline-stroke="" data-darkreader-inline-fill=""/><path d="M 961.87,447.23 C 961.80 447.97, 962.37 448.19, 962.82 447.60 C 963.26 447.00, 964.05 445.00, 964.12 444.26 C 964.19 443.51, 963.62 443.29, 963.17 443.89 C 962.73 444.48, 961.94 446.49, 961.87 447.23" style="stroke: black; fill: black; --darkreader-inline-stroke: var(--darkreader-text-000000, #181a1b); --darkreader-inline-fill: var(--darkreader-text-000000, #181a1b);" data-darkreader-inline-stroke="" data-darkreader-inline-fill=""/><path d="M 1041.08,497.18 C 1041.70 498.73, 1043.36 500.16, 1046.11 502.56 C 1048.85 504.96, 1050.74 506.17, 1054.80 509.18 C 1058.86 512.20, 1061.51 514.11, 1066.41 517.64 C 1071.32 521.17, 1073.93 522.97, 1079.34 526.82 C 1084.75 530.67, 1087.90 532.72, 1093.47 536.90 C 1099.05 541.08, 1101.91 543.47, 1107.20 547.72 C 1112.49 551.96, 1115.20 554.16, 1119.92 558.13 C 1124.63 562.11, 1127.01 564.02, 1130.79 567.58 C 1134.57 571.14, 1136.11 573.04, 1138.83 575.92 C 1141.56 578.80, 1142.61 580.37, 1144.42 582.00 C 1146.22 583.64, 1146.90 583.88, 1147.87 584.08 C 1148.83 584.28, 1149.24 584.02, 1149.24 583.00 C 1149.23 581.98, 1149.29 581.04, 1147.86 578.98 C 1146.43 576.92, 1145.01 575.53, 1142.08 572.70 C 1139.16 569.88, 1137.25 568.26, 1133.23 564.85 C 1129.21 561.44, 1126.80 559.54, 1121.98 555.64 C 1117.16 551.73, 1114.45 549.55, 1109.12 545.31 C 1103.79 541.07, 1100.90 538.67, 1095.33 534.44 C 1089.76 530.20, 1086.61 528.12, 1081.29 524.15 C 1075.96 520.18, 1073.45 518.29, 1068.71 514.58 C 1063.96 510.88, 1061.46 508.81, 1057.58 505.62 C 1053.69 502.43, 1052.19 500.79, 1049.28 498.63 C 1046.37 496.46, 1044.67 495.08, 1043.03 494.79 C 1041.39 494.50, 1040.47 495.63, 1041.08 497.18" style="stroke: black; fill: black; --darkreader-inline-stroke: var(--darkreader-text-000000, #181a1b); --darkreader-inline-fill: var(--darkreader-text-000000, #181a1b);" data-darkreader-inline-stroke="" data-darkreader-inline-fill=""/><path d="M 1076.40,539.73 C 1077.02 540.61, 1077.70 540.74, 1079.39 541.29 C 1081.08 541.84, 1082.08 542.40, 1084.84 542.50 C 1087.61 542.59, 1089.40 542.08, 1093.22 541.76 C 1097.05 541.43, 1099.42 541.35, 1103.98 540.88 C 1108.54 540.41, 1110.99 540.14, 1116.00 539.42 C 1121.02 538.70, 1123.75 538.16, 1129.07 537.26 C 1134.39 536.37, 1137.22 536.02, 1142.58 534.96 C 1147.95 533.90, 1150.74 533.26, 1155.88 531.96 C 1161.01 530.66, 1163.47 529.92, 1168.25 528.44 C 1173.02 526.97, 1175.42 526.15, 1179.75 524.58 C 1184.08 523.01, 1186.22 522.26, 1189.89 520.61 C 1193.57 518.96, 1195.16 518.17, 1198.12 516.32 C 1201.08 514.47, 1202.60 513.46, 1204.68 511.37 C 1206.75 509.28, 1207.50 508.12, 1208.50 505.87 C 1209.49 503.62, 1209.77 502.37, 1209.68 500.14 C 1209.58 497.90, 1209.25 496.62, 1208.03 494.68 C 1206.81 492.75, 1205.76 491.72, 1203.59 490.47 C 1201.42 489.21, 1199.99 488.67, 1197.17 488.43 C 1194.36 488.19, 1192.54 488.36, 1189.53 489.26 C 1186.51 490.16, 1184.97 490.88, 1182.11 492.92 C 1179.24 494.95, 1177.80 496.30, 1175.21 499.44 C 1172.62 502.58, 1171.29 504.57, 1169.14 508.62 C 1166.99 512.67, 1165.84 514.93, 1164.46 519.69 C 1163.07 524.44, 1162.49 527.26, 1162.20 532.40 C 1161.91 537.55, 1161.94 540.36, 1163.01 545.41 C 1164.08 550.46, 1164.99 553.25, 1167.55 557.67 C 1170.11 562.09, 1171.89 564.16, 1175.82 567.50 C 1179.75 570.83, 1182.13 572.37, 1187.19 574.35 C 1192.25 576.33, 1195.23 576.95, 1201.10 577.40 C 1206.98 577.86, 1210.14 577.56, 1216.56 576.62 C 1222.98 575.69, 1226.49 574.82, 1233.22 572.74 C 1239.96 570.66, 1243.63 569.26, 1250.24 566.23 C 1256.85 563.20, 1260.16 561.31, 1266.29 557.59 C 1272.42 553.87, 1275.55 551.69, 1280.88 547.63 C 1286.21 543.56, 1288.83 541.27, 1292.93 537.27 C 1297.02 533.27, 1298.70 531.18, 1301.35 527.61 C 1304.00 524.03, 1305.32 522.46, 1306.20 519.39 C 1307.07 516.32, 1306.68 514.55, 1305.75 512.25 C 1304.81 509.96, 1303.68 509.07, 1301.51 507.92 C 1299.33 506.76, 1297.79 506.17, 1294.87 506.48 C 1291.95 506.78, 1290.05 507.58, 1286.91 509.45 C 1283.78 511.32, 1282.22 512.67, 1279.20 515.83 C 1276.18 519.00, 1274.47 521.16, 1271.81 525.29 C 1269.16 529.43, 1267.80 531.89, 1265.91 536.49 C 1264.03 541.08, 1263.20 543.66, 1262.39 548.27 C 1261.59 552.88, 1261.38 555.38, 1261.89 559.53 C 1262.40 563.68, 1262.92 565.80, 1264.92 569.01 C 1266.92 572.22, 1268.55 573.82, 1271.88 575.59 C 1275.21 577.36, 1277.41 577.94, 1281.58 577.86 C 1285.74 577.79, 1288.17 577.17, 1292.70 575.22 C 1297.24 573.28, 1299.64 571.79, 1304.26 568.14 C 1308.89 564.49, 1311.30 562.17, 1315.85 556.98 C 1320.40 551.80, 1322.73 548.75, 1326.99 542.22 C 1331.26 535.70, 1333.34 532.02, 1337.15 524.34 C 1340.96 516.67, 1342.94 512.26, 1346.04 503.84 C 1349.14 495.42, 1350.40 490.77, 1352.66 482.25 C 1354.91 473.72, 1355.71 469.26, 1357.31 461.21 C 1358.90 453.15, 1359.65 448.95, 1360.63 441.97 C 1361.62 435.00, 1362.21 431.07, 1362.23 426.33 C 1362.25 421.58, 1361.98 419.54, 1360.74 418.24 C 1359.49 416.94, 1357.47 417.16, 1356.01 419.82 C 1354.54 422.48, 1354.43 425.31, 1353.42 431.53 C 1352.41 437.75, 1351.84 442.37, 1350.95 450.91 C 1350.07 459.46, 1349.54 464.57, 1348.97 474.24 C 1348.41 483.91, 1348.02 489.25, 1348.13 499.27 C 1348.24 509.29, 1348.43 514.66, 1349.53 524.35 C 1350.63 534.03, 1351.40 538.90, 1353.62 547.71 C 1355.83 556.53, 1357.21 560.96, 1360.59 568.42 C 1363.97 575.88, 1366.11 579.37, 1370.54 585.01 C 1374.97 590.65, 1377.45 593.00, 1382.74 596.61 C 1388.02 600.23, 1391.01 601.44, 1396.96 603.10 C 1402.90 604.76, 1406.30 605.09, 1412.46 604.91 C 1418.63 604.73, 1421.88 604.07, 1427.78 602.21 C 1433.67 600.36, 1436.57 598.71, 1441.92 595.63 C 1447.27 592.55, 1449.96 590.63, 1454.54 586.80 C 1459.11 582.97, 1461.57 580.44, 1464.79 576.50 C 1468.01 572.55, 1469.15 570.33, 1470.64 567.06 C 1472.13 563.79, 1472.35 561.70, 1472.24 560.15 C 1472.13 558.60, 1471.17 558.33, 1470.08 559.32 C 1469.00 560.31, 1468.51 562.17, 1466.82 565.10 C 1465.13 568.03, 1464.54 570.18, 1461.61 573.98 C 1458.69 577.78, 1456.49 580.34, 1452.21 584.09 C 1447.94 587.84, 1445.32 589.73, 1440.23 592.73 C 1435.14 595.72, 1432.35 597.27, 1426.77 599.05 C 1421.20 600.84, 1418.16 601.44, 1412.36 601.65 C 1406.56 601.86, 1403.38 601.59, 1397.78 600.10 C 1392.17 598.62, 1389.38 597.57, 1384.34 594.23 C 1379.31 590.89, 1376.91 588.74, 1372.59 583.38 C 1368.27 578.02, 1366.12 574.67, 1362.75 567.43 C 1359.38 560.19, 1357.97 555.84, 1355.75 547.17 C 1353.53 538.51, 1352.73 533.69, 1351.63 524.11 C 1350.54 514.52, 1350.34 509.20, 1350.29 499.25 C 1350.24 489.31, 1350.63 483.99, 1351.37 474.40 C 1352.12 464.81, 1352.82 459.72, 1353.99 451.28 C 1355.17 442.85, 1356.00 438.24, 1357.23 432.24 C 1358.47 426.23, 1359.84 423.89, 1360.18 421.24 C 1360.52 418.58, 1359.27 417.96, 1358.93 418.95 C 1358.59 419.95, 1358.70 421.69, 1358.47 426.22 C 1358.23 430.76, 1358.47 434.72, 1357.75 441.62 C 1357.03 448.53, 1356.35 452.74, 1354.87 460.74 C 1353.39 468.75, 1352.58 473.19, 1350.36 481.64 C 1348.15 490.10, 1346.89 494.70, 1343.79 503.01 C 1340.70 511.32, 1338.71 515.67, 1334.89 523.21 C 1331.06 530.74, 1328.95 534.35, 1324.66 540.67 C 1320.38 547.00, 1317.99 549.94, 1313.46 554.83 C 1308.92 559.71, 1306.46 561.86, 1301.98 565.11 C 1297.49 568.36, 1295.12 569.55, 1291.03 571.08 C 1286.95 572.61, 1284.88 572.81, 1281.56 572.77 C 1278.23 572.73, 1276.84 572.17, 1274.40 570.86 C 1271.96 569.55, 1270.87 568.61, 1269.34 566.22 C 1267.80 563.83, 1267.20 562.34, 1266.71 558.90 C 1266.23 555.46, 1266.23 553.17, 1266.91 549.04 C 1267.59 544.91, 1268.33 542.45, 1270.11 538.24 C 1271.90 534.03, 1273.24 531.67, 1275.82 527.99 C 1278.41 524.30, 1280.18 522.34, 1283.05 519.82 C 1285.92 517.29, 1287.56 516.65, 1290.17 515.36 C 1292.77 514.07, 1294.17 513.92, 1296.08 513.38 C 1298.00 512.84, 1298.62 512.59, 1299.73 512.66 C 1300.84 512.74, 1301.35 512.71, 1301.61 513.74 C 1301.87 514.78, 1301.78 515.53, 1301.04 517.83 C 1300.29 520.13, 1300.01 521.84, 1297.90 525.25 C 1295.78 528.65, 1294.24 530.85, 1290.46 534.84 C 1286.68 538.83, 1284.13 541.14, 1279.00 545.20 C 1273.86 549.25, 1270.77 551.43, 1264.77 555.10 C 1258.78 558.77, 1255.51 560.62, 1249.02 563.56 C 1242.53 566.50, 1238.91 567.84, 1232.33 569.80 C 1225.75 571.76, 1222.29 572.55, 1216.11 573.36 C 1209.92 574.17, 1206.91 574.36, 1201.40 573.85 C 1195.90 573.34, 1193.20 572.69, 1188.60 570.82 C 1184.00 568.94, 1181.90 567.52, 1178.40 564.49 C 1174.89 561.46, 1173.33 559.64, 1171.05 555.65 C 1168.78 551.67, 1167.97 549.17, 1167.04 544.58 C 1166.12 539.98, 1166.08 537.39, 1166.43 532.68 C 1166.78 527.97, 1167.37 525.34, 1168.78 521.02 C 1170.20 516.70, 1171.37 514.64, 1173.51 511.07 C 1175.64 507.51, 1177.02 505.72, 1179.45 503.21 C 1181.88 500.69, 1183.26 499.82, 1185.67 498.49 C 1188.07 497.16, 1189.28 497.06, 1191.50 496.55 C 1193.71 496.04, 1194.95 495.90, 1196.73 495.92 C 1198.52 495.95, 1199.17 496.20, 1200.43 496.69 C 1201.69 497.18, 1202.27 497.64, 1203.03 498.38 C 1203.79 499.12, 1204.18 499.43, 1204.23 500.39 C 1204.29 501.36, 1204.14 501.92, 1203.32 503.21 C 1202.50 504.51, 1201.80 505.17, 1200.13 506.87 C 1198.46 508.57, 1197.43 509.84, 1194.96 511.72 C 1192.49 513.59, 1191.13 514.50, 1187.78 516.26 C 1184.43 518.03, 1182.35 518.85, 1178.20 520.53 C 1174.05 522.20, 1171.68 523.08, 1167.03 524.62 C 1162.37 526.16, 1159.95 526.91, 1154.92 528.22 C 1149.88 529.53, 1147.14 530.15, 1141.84 531.17 C 1136.55 532.19, 1133.72 532.54, 1128.45 533.32 C 1123.17 534.11, 1120.43 534.60, 1115.47 535.10 C 1110.52 535.60, 1108.14 535.76, 1103.68 535.81 C 1099.23 535.87, 1096.91 535.67, 1093.18 535.39 C 1089.46 535.12, 1087.80 534.49, 1085.06 534.43 C 1082.33 534.37, 1081.26 534.62, 1079.51 535.11 C 1077.75 535.60, 1076.92 535.96, 1076.30 536.88 C 1075.68 537.80, 1075.78 538.84, 1076.40 539.73" style="stroke: black; fill: black; --darkreader-inline-stroke: var(--darkreader-text-000000, #181a1b); --darkreader-inline-fill: var(--darkreader-text-000000, #181a1b);" data-darkreader-inline-stroke="" data-darkreader-inline-fill=""/></svg>